<?xml version="1.0" encoding="UTF-8"?>
<svg width="499px" height="499px" viewBox="0 0 499 499" version="1.1" xmlns="http://www.w3.org/2000/svg" xmlns:xlink="http://www.w3.org/1999/xlink">
    <!-- Generator: Sketch 64 (93537) - https://sketch.com -->
    <title>AXA Logo</title>
    <desc>Created with Sketch.</desc>
    <g id="Page-1" stroke="none" stroke-width="1" fill="none" fill-rule="evenodd">
        <g id="Desktop" transform="translate(-262.000000, -262.000000)" fill-rule="nonzero">
            <g id="AXA-Logo" transform="translate(262.000000, 262.000000)">
                <rect id="base-2" fill="#00008F" x="0.00440086056" y="0.00440086056" width="498.99508" height="498.99508"></rect>
                <polygon id="switch" fill="#FF1721" points="280.563674 246.430598 309.220319 246.430598 498.999516 -1.46202209e-14 470.969554 -1.46202209e-14"></polygon>
                <path d="M381.285293,356.401066 C389.983155,380.734306 407.90522,444.057411 415.030213,449.102557 L367.978851,449.102557 C367.837476,443.504206 367.09714,437.93708 365.770499,432.496349 C363.741702,425.258694 346.722693,370.505825 346.722693,370.505825 L271.985516,370.505825 L260.235218,387.163963 C260.235218,387.163963 274.348778,431.344204 275.22543,433.510308 C276.747247,437.412991 283.485845,449.102557 283.485845,449.102557 L238.394626,449.102557 C238.394626,449.102557 237.225758,442.355158 236.787432,439.544768 C236.434483,437.275684 232.515076,424.846773 232.515076,424.846773 C232.515076,424.846773 222.295397,436.046084 219.510533,441.238219 C216.699263,446.420673 215.452939,449.102557 215.452939,449.102557 L180.1774,449.102557 C180.1774,449.102557 178.99973,442.355158 178.561404,439.544768 C178.218137,437.275684 173.902617,423.849538 173.902617,423.849538 C173.902617,423.849538 164.027086,435.840123 161.215816,441.022577 C158.42215,446.214713 157.218954,449.102557 157.218954,449.102557 L122.330691,449.102557 C122.330691,449.102557 132.189499,439.716402 135.636253,435.685213 C141.446269,428.851557 163.098504,400.555782 163.098504,400.555782 L154.417402,370.505807 L80.2470551,370.505807 C80.2470551,370.505807 37.9574239,426.075476 36.2903954,427.794452 C34.6057459,429.487903 22.2798152,447.177603 22.0043037,449.102557 L2.92404418e-14,449.102557 L2.92404418e-14,435.109563 C0.272920107,434.812406 0.562680394,434.531168 0.867849738,434.267238 C1.54734264,433.768181 32.9290004,394.813522 61.7581589,356.401049 C87.6651459,322.904337 111.97286,290.327406 114.104637,287.224799 C119.270367,279.721331 126.713983,263.519123 126.713983,263.519123 L165.057803,263.519123 C165.057803,263.519123 166.244275,278.423078 167.362093,282.041465 C168.358448,285.239131 191.720858,361.893323 192.270965,362.718924 L205.190132,346.198093 L183.108373,278.225039 C183.108373,278.225039 177.933841,265.435257 176.249192,263.519123 L221.040272,263.519123 C220.882162,267.630411 221.375283,271.740837 222.501358,275.698065 C224.323314,281.303001 233.925112,315.950977 233.925112,315.950977 C233.925112,315.950977 264.473247,277.658208 266.260876,274.90767 C268.430981,271.47715 269.726593,267.566741 270.034174,263.519123 L307.355234,263.519123 C307.355234,263.519123 300.522457,268.512339 288.548596,283.657461 C284.526209,288.754538 245.115621,338.840734 245.115621,338.840734 C245.115621,338.840734 248.554453,350.564627 250.230301,356.401084 C250.68623,358.076932 251.003972,359.211474 251.003972,359.332057 C251.003972,359.383987 251.871822,358.318099 253.36727,356.401084 C263.535863,343.516244 309.788065,282.867102 312.590533,277.674966 C314.850815,273.480946 318.176986,268.710413 320.128327,263.519123 L356.538373,263.519123 C356.538373,263.519123 357.380698,274.391924 358.489715,277.400353 L381.285293,356.401066 Z M325.878457,298.991838 C320.532291,310.493048 289.064376,348.80254 289.064376,348.80254 L338.900604,348.80254 C338.900604,348.80254 329.239834,319.053602 327.555185,312.349331 C326.694287,308.062452 326.364967,303.685818 326.574673,299.318382 C326.574638,298.708423 326.462891,297.719989 325.878457,298.991838 L325.878457,298.991838 Z M134.397886,298.991838 C129.05172,310.493048 97.5838058,348.80254 97.5838058,348.80254 L147.420033,348.80254 C147.420033,348.80254 137.768065,319.053602 136.083416,312.349331 C135.222518,308.062452 134.893199,303.685818 135.102904,299.318382 C135.102904,298.708423 134.983201,297.719989 134.397868,298.991838 L134.397886,298.991838 Z M209.428161,415.150797 L223.146524,396.309832 C221.882597,394.951691 214.155601,371.520664 214.155601,371.520664 L200.892251,388.728029 L209.428161,415.150797 Z" id="axa" fill="#FFFFFF"></path>
            </g>
        </g>
    </g>
</svg>